<?xml version="1.0" encoding="UTF-8"?>
<svg id="Layer_1" data-name="Layer 1" xmlns="http://www.w3.org/2000/svg" viewBox="0 0 1040 535">
  <path d="M936.47,176.77c0-42.49-33.14-77.23-74.99-79.82v-.1S338.11,35.56,338.11,35.56c-13.51-2.44-27.42-3.71-41.63-3.71-128.68,0-233,104.32-233,233s104.32,233,233,233c71.06,0,134.68-31.82,177.42-81.98,43.01-26.97,88.03-53.87,138.33-60.73,15.44-2.11,31.13-2.27,46.47-5.03,30.99-5.58,59-21.4,86.86-36.07,41.01-21.6,83.08-41.19,125.99-58.72,36.98-7.04,64.93-39.52,64.93-78.55Z"/>
</svg>